<svg width="88" height="20" viewBox="0 0 88 20" fill="none" xmlns="http://www.w3.org/2000/svg">
                        <path
                            d="M54.32 12C53.968 12 53.696 11.9093 53.504 11.728C53.3227 11.536 53.232 11.264 53.232 10.912V1.808C53.232 1.456 53.3227 1.18933 53.504 1.008C53.696 0.815999 53.968 0.719999 54.32 0.719999H58.16C58.9493 0.719999 59.6213 0.837333 60.176 1.072C60.7307 1.30667 61.152 1.64267 61.44 2.08C61.7387 2.51733 61.888 3.04 61.888 3.648C61.888 4.33067 61.6907 4.90667 61.296 5.376C60.9013 5.84533 60.3627 6.16 59.68 6.32V6.08C60.4693 6.19733 61.0827 6.496 61.52 6.976C61.9573 7.456 62.176 8.08 62.176 8.848C62.176 9.85067 61.8347 10.6293 61.152 11.184C60.48 11.728 59.5413 12 58.336 12H54.32ZM55.2 10.448H58.08C58.8053 10.448 59.3387 10.3093 59.68 10.032C60.0213 9.744 60.192 9.31733 60.192 8.752C60.192 8.176 60.0213 7.74933 59.68 7.472C59.3387 7.19467 58.8053 7.056 58.08 7.056H55.2V10.448ZM55.2 5.504H57.808C58.512 5.504 59.0347 5.37067 59.376 5.104C59.728 4.82667 59.904 4.42133 59.904 3.888C59.904 3.35467 59.728 2.95467 59.376 2.688C59.0347 2.41067 58.512 2.272 57.808 2.272H55.2V5.504ZM66.6316 12.16C66.0663 12.16 65.5596 12.0533 65.1116 11.84C64.6743 11.616 64.3276 11.3173 64.0716 10.944C63.8263 10.5707 63.7036 10.1493 63.7036 9.68C63.7036 9.104 63.853 8.65067 64.1516 8.32C64.4503 7.97867 64.9356 7.73333 65.6076 7.584C66.2796 7.43467 67.181 7.36 68.3116 7.36H69.1116V8.512H68.3276C67.6663 8.512 67.1383 8.544 66.7436 8.608C66.349 8.672 66.0663 8.784 65.8956 8.944C65.7356 9.09333 65.6556 9.30667 65.6556 9.584C65.6556 9.936 65.7783 10.224 66.0236 10.448C66.269 10.672 66.6103 10.784 67.0476 10.784C67.3996 10.784 67.709 10.704 67.9756 10.544C68.253 10.3733 68.4716 10.144 68.6316 9.856C68.7916 9.568 68.8716 9.23733 68.8716 8.864V7.024C68.8716 6.49067 68.7543 6.10667 68.5196 5.872C68.285 5.63733 67.8903 5.52 67.3356 5.52C67.0263 5.52 66.6903 5.55733 66.3276 5.632C65.9756 5.70667 65.6023 5.83467 65.2076 6.016C65.005 6.112 64.8236 6.13867 64.6636 6.096C64.5143 6.05333 64.397 5.968 64.3116 5.84C64.2263 5.70133 64.1836 5.552 64.1836 5.392C64.1836 5.232 64.2263 5.07733 64.3116 4.928C64.397 4.768 64.541 4.65067 64.7436 4.576C65.2343 4.37333 65.7036 4.22933 66.1516 4.144C66.6103 4.05867 67.0263 4.016 67.3996 4.016C68.1676 4.016 68.797 4.13333 69.2876 4.368C69.789 4.60267 70.1623 4.96 70.4076 5.44C70.653 5.90933 70.7756 6.51733 70.7756 7.264V11.104C70.7756 11.4347 70.6956 11.6907 70.5356 11.872C70.3756 12.0427 70.1463 12.128 69.8476 12.128C69.549 12.128 69.3143 12.0427 69.1436 11.872C68.9836 11.6907 68.9036 11.4347 68.9036 11.104V10.336H69.0316C68.957 10.7093 68.8076 11.0347 68.5836 11.312C68.3703 11.5787 68.0983 11.7867 67.7676 11.936C67.437 12.0853 67.0583 12.16 66.6316 12.16ZM76.4216 12.16C75.6003 12.16 74.8856 11.9947 74.2776 11.664C73.6696 11.3227 73.2003 10.8427 72.8696 10.224C72.539 9.60533 72.3736 8.88 72.3736 8.048C72.3736 7.41867 72.4643 6.85867 72.6456 6.368C72.8376 5.86667 73.1096 5.44533 73.4616 5.104C73.8136 4.752 74.2403 4.48533 74.7416 4.304C75.243 4.112 75.803 4.016 76.4216 4.016C76.7736 4.016 77.1523 4.064 77.5576 4.16C77.9736 4.256 78.363 4.416 78.7256 4.64C78.8963 4.74667 79.0083 4.87467 79.0616 5.024C79.115 5.17333 79.1256 5.328 79.0936 5.488C79.0616 5.63733 78.9923 5.77067 78.8856 5.888C78.7896 5.99467 78.667 6.064 78.5176 6.096C78.3683 6.11733 78.203 6.08 78.0216 5.984C77.787 5.84533 77.547 5.744 77.3016 5.68C77.0563 5.60533 76.8216 5.568 76.5976 5.568C76.2456 5.568 75.9363 5.62667 75.6696 5.744C75.403 5.85067 75.1736 6.01067 74.9816 6.224C74.8003 6.42667 74.6616 6.68267 74.5656 6.992C74.4696 7.30133 74.4216 7.65867 74.4216 8.064C74.4216 8.85333 74.6083 9.47733 74.9816 9.936C75.3656 10.384 75.9043 10.608 76.5976 10.608C76.8216 10.608 77.051 10.576 77.2856 10.512C77.531 10.448 77.7763 10.3467 78.0216 10.208C78.203 10.112 78.363 10.08 78.5016 10.112C78.651 10.144 78.7736 10.2187 78.8696 10.336C78.9656 10.4427 79.0243 10.576 79.0456 10.736C79.067 10.8853 79.0456 11.0347 78.9816 11.184C78.9283 11.3333 78.8216 11.456 78.6616 11.552C78.3096 11.7653 77.9363 11.92 77.5416 12.016C77.147 12.112 76.7736 12.16 76.4216 12.16ZM81.3445 12.128C81.0245 12.128 80.7792 12.0427 80.6085 11.872C80.4378 11.6907 80.3525 11.4347 80.3525 11.104V1.6C80.3525 1.26933 80.4378 1.01867 80.6085 0.848C80.7792 0.677333 81.0245 0.591999 81.3445 0.591999C81.6645 0.591999 81.9098 0.677333 82.0805 0.848C82.2618 1.01867 82.3525 1.26933 82.3525 1.6V7.504H82.3845L85.0245 4.72C85.2378 4.50667 85.4245 4.34133 85.5845 4.224C85.7445 4.10667 85.9632 4.048 86.2405 4.048C86.5178 4.048 86.7258 4.12267 86.8645 4.272C87.0138 4.41067 87.0885 4.58133 87.0885 4.784C87.0885 4.98667 86.9925 5.18933 86.8005 5.392L84.0165 8.336V7.504L87.0725 10.8C87.2645 11.0027 87.3498 11.2107 87.3285 11.424C87.3178 11.6267 87.2325 11.7973 87.0725 11.936C86.9125 12.064 86.7098 12.128 86.4645 12.128C86.1658 12.128 85.9258 12.0693 85.7445 11.952C85.5738 11.8347 85.3818 11.6587 85.1685 11.424L82.3845 8.512H82.3525V11.104C82.3525 11.7867 82.0165 12.128 81.3445 12.128Z"
                            fill="#545454"
                        />
                        <line x1="1" y1="19" x2="87" y2="19" stroke="#545454" stroke-width="2" stroke-linecap="round" />
                        <line x1="1" y1="18.5858" x2="13.7279" y2="5.85786" stroke="#545454" stroke-width="2" stroke-linecap="round" />
                    </svg>