<svg width="36" height="36" viewBox="0 0 36 36" fill="none" xmlns="http://www.w3.org/2000/svg">
                            <rect width="36" height="36" rx="2" fill="#878787" fill-opacity="0.12" />
                            <path
                                d="M26.7846 26.4308L26.7846 22.3718C26.7846 22.1241 26.5837 21.9233 26.3361 21.9233C26.0884 21.9233 25.8876 22.1241 25.8876 22.3718L25.8876 25.3481L21.5757 21.0362C21.4006 20.8611 21.1166 20.8611 20.9415 21.0362C20.7664 21.2113 20.7663 21.4953 20.9415 21.6704L25.2534 25.9823L22.2771 25.9824C22.0294 25.9824 21.8286 26.1832 21.8286 26.4309C21.8286 26.5546 21.8788 26.6668 21.96 26.748C22.0411 26.8291 22.1533 26.8793 22.2771 26.8793L26.3361 26.8793C26.5838 26.8793 26.7846 26.6785 26.7846 26.4308Z"
                                fill="#393939"
                            />
                            <path
                                d="M26.2088 9.21532L22.1497 9.21532C21.9021 9.21532 21.7013 9.41614 21.7013 9.6638C21.7013 9.9115 21.902 10.1123 22.1497 10.1123L25.1261 10.1123L20.8142 14.4242C20.639 14.5993 20.639 14.8833 20.8142 15.0584C20.9893 15.2335 21.2733 15.2335 21.4484 15.0584L25.7603 10.7465L25.7604 13.7228C25.7604 13.9705 25.9611 14.1713 26.2088 14.1713C26.3326 14.1712 26.4448 14.1211 26.526 14.0399C26.6071 13.9588 26.6573 13.8466 26.6573 13.7228L26.6573 9.6638C26.6573 9.41609 26.4565 9.21532 26.2088 9.21532Z"
                                fill="#393939"
                            />
                            <path
                                d="M9.27404 9.95613L9.27404 14.0152C9.27404 14.2628 9.47486 14.4637 9.72251 14.4637C9.97022 14.4637 10.171 14.2629 10.171 14.0152L10.171 11.0388L14.4829 15.3508C14.658 15.5259 14.942 15.5259 15.1171 15.3508C15.2922 15.1757 15.2923 14.8916 15.1171 14.7165L10.8052 10.4046L13.7815 10.4045C14.0292 10.4045 14.23 10.2038 14.23 9.95607C14.23 9.8323 14.1798 9.72012 14.0986 9.63896C14.0175 9.5578 13.9053 9.50765 13.7815 9.5076L9.72251 9.50765C9.47481 9.50765 9.27404 9.70842 9.27404 9.95613Z"
                                fill="#393939"
                            />
                            <path
                                d="M9.66364 26.687L13.7227 26.687C13.9704 26.687 14.1712 26.4862 14.1712 26.2385C14.1712 25.9908 13.9704 25.7901 13.7227 25.7901L10.7463 25.7901L15.0583 21.4781C15.2334 21.303 15.2334 21.019 15.0583 20.8439C14.8832 20.6688 14.5992 20.6688 14.424 20.8439L10.1121 25.1558L10.1121 22.1795C10.1121 21.9318 9.9113 21.7311 9.66359 21.7311C9.53982 21.7311 9.42764 21.7813 9.34648 21.8624C9.26532 21.9436 9.21517 22.0557 9.21512 22.1795L9.21517 26.2385C9.21517 26.4862 9.41594 26.687 9.66364 26.687Z"
                                fill="#393939"
                            />
                        </svg>