<svg width="24" height="24" viewBox="0 0 24 24" fill="none" xmlns="http://www.w3.org/2000/svg">
                                    <g clip-path="url(#clip0_2_64)">
                                        <path
                                            d="M23.4619 18.967L19.7555 15.2602C19.0173 14.5249 17.7947 14.5472 17.0307 15.3115L15.1634 17.1784C15.0455 17.1133 14.9233 17.0454 14.795 16.9734C13.6158 16.32 12.0019 15.4245 10.3035 13.7249C8.60019 12.0218 7.70384 10.4054 7.04846 9.22544C6.97931 9.10043 6.91305 8.97991 6.84761 8.86545L8.10085 7.61407L8.71699 6.99717C9.48213 6.23182 9.50323 5.00961 8.76671 4.27219L5.06028 0.56494C4.32376 -0.171449 3.10065 -0.149109 2.33551 0.616239L1.29091 1.66683L1.31946 1.69517C0.969189 2.14211 0.676495 2.65758 0.458681 3.21346C0.257898 3.74258 0.132891 4.2475 0.0757314 4.75346C-0.413678 8.81077 1.4404 12.5188 6.47211 17.5506C13.4275 24.5055 19.0326 23.9801 19.2744 23.9545C19.801 23.8915 20.3057 23.7657 20.8187 23.5665C21.3697 23.3512 21.8848 23.0589 22.3315 22.7094L22.3543 22.7297L23.4126 21.6934C24.1761 20.9282 24.1981 19.7056 23.4619 18.967Z"
                                            fill="#808080"
                                        />
                                    </g>
                                    <defs>
                                        <clipPath id="clip0_2_64">
                                            <rect width="24" height="24" fill="white" />
                                        </clipPath>
                                    </defs>
                                </svg>