<svg width="21" height="24" viewBox="0 0 21 24" fill="none" xmlns="http://www.w3.org/2000/svg">
                                    <path
                                        d="M10.5 0C4.71027 0 0 3.89916 0 8.69185C0 14.6397 9.39647 23.3716 9.79653 23.7404C10.1723 24.0868 10.8284 24.0862 11.2035 23.7404C11.6035 23.3716 21 14.6397 21 8.69185C20.9999 3.89916 16.2897 0 10.5 0ZM10.5 13.065C7.58704 13.065 5.21724 11.1032 5.21724 8.69185C5.21724 6.28051 7.5871 4.31879 10.5 4.31879C13.4129 4.31879 15.7827 6.28055 15.7827 8.6919C15.7827 11.1032 13.4129 13.065 10.5 13.065Z"
                                        fill="#808080"
                                    />
                                </svg>