<svg width="24" height="24" viewBox="0 0 24 24" fill="none" xmlns="http://www.w3.org/2000/svg">
                                    <g clip-path="url(#clip0_2_85)">
                                        <path
                                            d="M21.8326 6.27045C20.7862 4.43188 19.3669 2.97628 17.5743 1.90333C15.7814 0.830314 13.8241 0.293945 11.701 0.293945C9.57815 0.293945 7.6202 0.830478 5.82768 1.90333C4.03489 2.97623 2.61565 4.43188 1.5693 6.27045C0.523119 8.10897 0 10.1166 0 12.2934C0 14.9082 0.743882 17.2595 2.23202 19.3479C3.72 21.4365 5.64225 22.8817 7.9986 23.6837C8.27289 23.7359 8.47594 23.6992 8.60796 23.5745C8.74003 23.4496 8.80599 23.2932 8.80599 23.1059C8.80599 23.0746 8.80337 22.7935 8.7983 22.2622C8.79307 21.7309 8.79062 21.2673 8.79062 20.8718L8.44018 20.934C8.21675 20.976 7.93489 20.9938 7.59459 20.9887C7.25445 20.9838 6.90135 20.9473 6.53576 20.8793C6.17001 20.812 5.82982 20.6557 5.51492 20.4109C5.20019 20.1661 4.97675 19.8457 4.84468 19.4502L4.69233 19.0906C4.59078 18.8512 4.4309 18.5853 4.21249 18.2938C3.99407 18.0021 3.7732 17.8043 3.54977 17.7002L3.4431 17.6219C3.37202 17.5698 3.30606 17.5071 3.24507 17.4342C3.18413 17.3614 3.1385 17.2885 3.10803 17.2155C3.07751 17.1424 3.1028 17.0825 3.18418 17.0355C3.26556 16.9885 3.41263 16.9657 3.62603 16.9657L3.93062 17.0123C4.13378 17.0541 4.38506 17.1788 4.6848 17.3873C4.98439 17.5955 5.23066 17.8663 5.42367 18.1995C5.6574 18.6267 5.939 18.9522 6.26926 19.1762C6.59926 19.4002 6.93198 19.512 7.2671 19.512C7.60222 19.512 7.89166 19.4859 8.13553 19.4341C8.37914 19.382 8.60769 19.3037 8.82109 19.1996C8.9125 18.5014 9.16139 17.9651 9.56753 17.5901C8.98865 17.5277 8.4682 17.4338 8.00591 17.3088C7.5439 17.1837 7.06646 16.9807 6.57391 16.6992C6.0811 16.4181 5.67229 16.069 5.34736 15.6525C5.02238 15.2358 4.75567 14.6888 4.54761 14.0119C4.33944 13.3347 4.23533 12.5535 4.23533 11.6682C4.23533 10.4076 4.63662 9.33483 5.43904 8.44937C5.06315 7.50162 5.09864 6.43917 5.54561 5.26213C5.84017 5.16827 6.277 5.23871 6.85588 5.47299C7.43487 5.70738 7.85879 5.90817 8.12806 6.07464C8.39733 6.24107 8.61308 6.38209 8.77562 6.49647C9.72042 6.22574 10.6954 6.09035 11.7009 6.09035C12.7064 6.09035 13.6816 6.22574 14.6264 6.49647L15.2053 6.12165C15.6013 5.87156 16.0688 5.64236 16.6068 5.43402C17.1451 5.22579 17.5567 5.16844 17.8413 5.26229C18.2982 6.43939 18.3389 7.50179 17.9629 8.44953C18.7653 9.335 19.1667 10.408 19.1667 11.6683C19.1667 12.5537 19.0622 13.3373 18.8544 14.0197C18.6463 14.7022 18.3773 15.2487 18.0473 15.6603C17.7169 16.0719 17.3055 16.4183 16.8129 16.6994C16.3203 16.9806 15.8427 17.1837 15.3806 17.3088C14.9184 17.4339 14.398 17.5279 13.8191 17.5904C14.3471 18.059 14.6111 18.7986 14.6111 19.8089V23.1055C14.6111 23.2927 14.6746 23.4491 14.8017 23.574C14.9287 23.6987 15.1291 23.7355 15.4034 23.6832C17.7601 22.8813 19.6824 21.436 21.1703 19.3475C22.658 17.2591 23.4022 14.9078 23.4022 12.293C23.4017 10.1165 22.8783 8.10897 21.8326 6.27045Z"
                                            fill="#808080"
                                        />
                                    </g>
                                    <defs>
                                        <clipPath id="clip0_2_85">
                                            <rect width="24" height="24" fill="white" />
                                        </clipPath>
                                    </defs>
                                </svg>